<svg width="80" height="80" viewBox="0 0 80 80" fill="none" xmlns="http://www.w3.org/2000/svg">
<circle cx="40" cy="40" r="39" stroke="#434343" stroke-width="2"/>
<g clip-path="url(#clip0_18_21)">
<path d="M34.265 31.807L35.412 33.446C34.0182 34.4218 32.9718 35.8165 32.4247 37.4276C31.8777 39.0387 31.8586 40.7822 32.3702 42.4049C32.8817 44.0276 33.8973 45.445 35.2694 46.4511C36.6415 47.4572 38.2986 47.9996 40 47.9996C41.7014 47.9996 43.3585 47.4572 44.7306 46.4511C46.1027 45.445 47.1183 44.0276 47.6298 42.4049C48.1414 40.7822 48.1223 39.0387 47.5753 37.4276C47.0282 35.8165 45.9818 34.4218 44.588 33.446L45.735 31.807C47.0529 32.7284 48.1289 33.9545 48.8715 35.3809C49.614 36.8073 50.0012 38.3919 50 40C50 45.523 45.523 50 40 50C34.477 50 30 45.523 30 40C29.9988 38.3919 30.386 36.8073 31.1285 35.3809C31.8711 33.9545 32.947 32.7284 34.265 31.807V31.807ZM39 40V30H41V40H39Z" fill="#434343"/>
</g>
<defs>
<clipPath id="clip0_18_21">
<rect width="24" height="24" fill="white" transform="translate(28 28)"/>
</clipPath>
</defs>
</svg>
